<svg width="26.666992" height="24.000000" viewBox="0 0 26.667 24" fill="none" xmlns="http://www.w3.org/2000/svg" xmlns:xlink="http://www.w3.org/1999/xlink">
	<desc>
			Created with Pixso.
	</desc>
	<defs/>
	<path id="Vector" d="M22.66 4L18.66 4L18.66 2.66C18.66 1.95 18.38 1.28 17.88 0.78C17.38 0.28 16.7 0 16 0L10.66 0C9.95 0 9.28 0.28 8.78 0.78C8.28 1.28 8 1.95 8 2.66L8 4L4 4C2.93 4 1.92 4.42 1.17 5.17C0.42 5.92 0 6.93 0 8L0 20C0 21.06 0.42 22.07 1.17 22.82C1.92 23.57 2.93 24 4 24L22.66 24C23.72 24 24.74 23.57 25.49 22.82C26.24 22.07 26.66 21.06 26.66 20L26.66 8C26.66 6.93 26.24 5.92 25.49 5.17C24.74 4.42 23.72 4 22.66 4ZM10.66 2.66L16 2.66L16 4L10.66 4L10.66 2.66ZM24 20C24 20.35 23.85 20.69 23.6 20.94C23.35 21.19 23.02 21.33 22.66 21.33L4 21.33C3.64 21.33 3.3 21.19 3.05 20.94C2.8 20.69 2.66 20.35 2.66 20L2.66 12.52L8.9 14.66C9.04 14.68 9.19 14.68 9.33 14.66L17.33 14.66C17.47 14.66 17.62 14.64 17.75 14.6L24 12.52L24 20ZM24 9.7L17.12 12L9.54 12L2.66 9.7L2.66 8C2.66 7.64 2.8 7.3 3.05 7.05C3.3 6.8 3.64 6.66 4 6.66L22.66 6.66C23.02 6.66 23.35 6.8 23.6 7.05C23.85 7.3 24 7.64 24 8L24 9.7Z" fill="#EB3B3B" fill-opacity="1.000000" fill-rule="nonzero"/>
</svg>
