<svg width="26.666992" height="26.666687" viewBox="0 0 26.667 26.6667" fill="none" xmlns="http://www.w3.org/2000/svg" xmlns:xlink="http://www.w3.org/1999/xlink">
	<desc>
			Created with Pixso.
	</desc>
	<defs/>
	<path id="Vector" d="M7.33 18.66C7.86 18.66 8.37 18.45 8.74 18.08C9.12 17.7 9.33 17.19 9.33 16.66C9.33 16.6 9.33 16.53 9.33 16.46L13.05 12.74L13.36 12.74L13.66 12.74L15.81 14.89C15.81 14.89 15.81 14.96 15.81 15C15.81 15.53 16.02 16.03 16.39 16.41C16.77 16.78 17.28 17 17.81 17C18.34 17 18.85 16.78 19.22 16.41C19.6 16.03 19.81 15.53 19.81 15L19.81 14.89L24.66 10C25.06 10 25.44 9.88 25.77 9.66C26.1 9.44 26.36 9.13 26.51 8.76C26.66 8.39 26.7 7.99 26.62 7.6C26.55 7.22 26.36 6.86 26.08 6.58C25.8 6.3 25.44 6.11 25.05 6.03C24.66 5.96 24.26 6 23.9 6.15C23.53 6.3 23.22 6.55 23 6.88C22.78 7.21 22.66 7.6 22.66 8C22.66 8.06 22.66 8.13 22.66 8.2L17.85 13.01L17.63 13.01L15.33 10.66C15.33 10.13 15.12 9.62 14.74 9.25C14.37 8.87 13.86 8.66 13.33 8.66C12.8 8.66 12.29 8.87 11.91 9.25C11.54 9.62 11.33 10.13 11.33 10.66L7.33 14.66C6.8 14.66 6.29 14.87 5.91 15.25C5.54 15.62 5.33 16.13 5.33 16.66C5.33 17.19 5.54 17.7 5.91 18.08C6.29 18.45 6.8 18.66 7.33 18.66ZM25.33 24L2.66 24L2.66 1.33C2.66 0.97 2.52 0.64 2.27 0.39C2.02 0.14 1.68 0 1.33 0C0.97 0 0.64 0.14 0.39 0.39C0.14 0.64 0 0.97 0 1.33L0 25.33C0 25.68 0.14 26.02 0.39 26.27C0.64 26.52 0.97 26.66 1.33 26.66L25.33 26.66C25.68 26.66 26.02 26.52 26.27 26.27C26.52 26.02 26.66 25.68 26.66 25.33C26.66 24.97 26.52 24.64 26.27 24.39C26.02 24.14 25.68 24 25.33 24Z" fill="#D11F7F" fill-opacity="1.000000" fill-rule="nonzero"/>
</svg>
