<svg width="26.666992" height="21.038269" viewBox="0 0 26.667 21.0383" fill="none" xmlns="http://www.w3.org/2000/svg" xmlns:xlink="http://www.w3.org/1999/xlink">
	<desc>
			Created with Pixso.
	</desc>
	<defs/>
	<path id="Vector" d="M25.33 8.41L22 8.41C21.82 8.41 21.64 8.45 21.48 8.52C21.32 8.58 21.17 8.68 21.05 8.81L19.4 10.53L15.66 6.28C15.54 6.14 15.39 6.04 15.22 5.96C15.05 5.89 14.87 5.85 14.69 5.85C14.51 5.85 14.33 5.89 14.16 5.96C13.99 6.04 13.84 6.14 13.71 6.28L11.45 8.54L9.33 8.54C8.97 8.54 8.64 8.68 8.39 8.93C8.14 9.18 8 9.52 8 9.88C8 10.23 8.14 10.57 8.39 10.82C8.64 11.07 8.97 11.21 9.33 11.21L12 11.21C12.17 11.21 12.34 11.18 12.51 11.11C12.67 11.04 12.82 10.95 12.94 10.82L14.66 9.04L18.4 13.29C18.52 13.43 18.66 13.54 18.83 13.62C18.99 13.69 19.17 13.74 19.36 13.74C19.53 13.74 19.7 13.71 19.87 13.64C20.03 13.58 20.18 13.48 20.3 13.36L22.57 11.08L25.33 11.08C25.68 11.08 26.02 10.94 26.27 10.69C26.52 10.44 26.66 10.1 26.66 9.74C26.66 9.39 26.52 9.05 26.27 8.8C26.02 8.55 25.68 8.41 25.33 8.41ZM15.48 15.48L12.94 18.01C12.82 18.14 12.67 18.23 12.51 18.3C12.35 18.37 12.17 18.4 12 18.4C11.82 18.4 11.64 18.37 11.48 18.3C11.32 18.23 11.17 18.14 11.05 18.01L4.1 11.06C3.64 10.61 3.28 10.06 3.03 9.47C2.79 8.87 2.66 8.23 2.66 7.58C2.66 6.94 2.79 6.3 3.03 5.7C3.28 5.1 3.64 4.56 4.1 4.1C5.02 3.18 6.27 2.67 7.58 2.67C8.88 2.67 10.13 3.18 11.05 4.1C11.17 4.23 11.32 4.33 11.48 4.4C11.64 4.46 11.82 4.5 12 4.5C12.17 4.5 12.35 4.46 12.51 4.4C12.67 4.33 12.82 4.23 12.94 4.1C13.88 3.21 15.12 2.72 16.41 2.72C17.71 2.72 18.95 3.21 19.89 4.1C20.19 4.4 20.45 4.74 20.66 5.1C20.86 5.37 21.14 5.56 21.46 5.62C21.79 5.69 22.12 5.64 22.41 5.47C22.7 5.31 22.91 5.04 23.01 4.73C23.11 4.41 23.09 4.07 22.96 3.77C22.63 3.22 22.23 2.72 21.78 2.26C20.52 0.98 18.84 0.2 17.04 0.04C15.25 -0.11 13.46 0.38 12 1.42C10.86 0.61 9.53 0.12 8.14 0.02C6.74 -0.09 5.35 0.19 4.11 0.83C2.87 1.47 1.83 2.44 1.1 3.63C0.37 4.82 -0.01 6.19 0 7.58C0 8.58 0.19 9.56 0.57 10.47C0.96 11.39 1.52 12.22 2.22 12.92L9.17 19.86C9.92 20.61 10.94 21.03 12 21.03C13.05 21.03 14.07 20.61 14.82 19.86L17.33 17.36C17.58 17.11 17.72 16.77 17.72 16.42C17.72 16.06 17.58 15.73 17.33 15.48C17.08 15.24 16.75 15.1 16.4 15.1C16.06 15.1 15.72 15.24 15.48 15.48Z" fill="#FF004D" fill-opacity="1.000000" fill-rule="nonzero"/>
</svg>
