<svg width="25.086914" height="26.670593" viewBox="0 0 25.0869 26.6706" fill="none" xmlns="http://www.w3.org/2000/svg" xmlns:xlink="http://www.w3.org/1999/xlink">
	<desc>
			Created with Pixso.
	</desc>
	<defs/>
	<path id="Vector" d="M25.05 4.99C25.01 4.82 24.93 4.66 24.82 4.52C24.71 4.38 24.58 4.27 24.42 4.18L17.49 0.18C17.34 0.09 17.17 0.03 17 0.01C16.83 -0.02 16.65 -0.01 16.48 0.04C16.31 0.08 16.15 0.16 16.01 0.27C15.87 0.37 15.75 0.51 15.66 0.66L12.54 6.07L9.42 0.66C9.34 0.51 9.22 0.37 9.08 0.27C8.94 0.16 8.78 0.08 8.61 0.04C8.44 -0.01 8.26 -0.02 8.09 0.01C7.92 0.03 7.75 0.09 7.6 0.18L0.66 4.18C0.51 4.27 0.38 4.38 0.27 4.52C0.16 4.66 0.08 4.82 0.04 4.99C-0.05 5.33 0 5.69 0.17 5.99L5.5 15.1C4.91 16.19 4.58 17.4 4.54 18.64C4.54 19.86 4.81 21.05 5.34 22.14C5.87 23.23 6.63 24.19 7.58 24.94C8.53 25.69 9.64 26.22 10.82 26.48C12.01 26.74 13.23 26.73 14.41 26.45C15.59 26.16 16.69 25.62 17.62 24.85C18.56 24.08 19.31 23.11 19.81 22.01C20.32 20.91 20.57 19.71 20.54 18.5C20.52 17.28 20.22 16.1 19.66 15.02L24.87 6C24.96 5.86 25.03 5.69 25.06 5.52C25.09 5.34 25.09 5.16 25.05 4.99ZM3.21 5.82L7.83 3.15L12.12 10.64C10.29 10.76 8.55 11.5 7.21 12.75L3.21 5.82ZM12.54 23.98C11.13 23.98 9.77 23.42 8.77 22.42C7.77 21.42 7.21 20.06 7.21 18.64C7.21 17.23 7.77 15.87 8.77 14.87C9.77 13.87 11.13 13.31 12.54 13.31C13.96 13.31 15.32 13.87 16.32 14.87C17.32 15.87 17.88 17.23 17.88 18.64C17.88 20.06 17.32 21.42 16.32 22.42C15.32 23.42 13.96 23.98 12.54 23.98ZM17.88 12.71C17.15 12.05 16.31 11.53 15.4 11.18L14.09 8.74L17.32 3.15L21.93 5.82L17.88 12.71Z" fill="#F37E11" fill-opacity="1.000000" fill-rule="nonzero"/>
</svg>
