<svg width="26.666992" height="24.000000" viewBox="0 0 26.667 24" fill="none" xmlns="http://www.w3.org/2000/svg" xmlns:xlink="http://www.w3.org/1999/xlink">
	<desc>
			Created with Pixso.
	</desc>
	<defs/>
	<path id="Vector" d="M25.62 12C26.29 11.26 26.66 10.32 26.66 9.33C26.66 8.27 26.24 7.25 25.49 6.5C24.74 5.75 23.72 5.33 22.66 5.33L15.75 5.33C15.97 4.73 16.03 4.08 15.95 3.45C15.86 2.82 15.62 2.21 15.25 1.69C14.88 1.17 14.4 0.74 13.83 0.45C13.26 0.15 12.63 0 12 0L4 0C2.93 0 1.92 0.42 1.17 1.17C0.42 1.92 0 2.93 0 4C0 4.98 0.37 5.93 1.04 6.66C0.38 7.4 0.02 8.34 0.02 9.33C0.02 10.31 0.38 11.26 1.04 12C0.38 12.73 0.02 13.68 0.02 14.66C0.02 15.65 0.38 16.6 1.04 17.33C0.37 18.06 0 19.01 0 20C0 21.06 0.42 22.07 1.17 22.82C1.92 23.57 2.93 24 4 24L22.66 24C23.43 23.99 24.18 23.76 24.83 23.34C25.47 22.92 25.98 22.32 26.3 21.62C26.61 20.91 26.71 20.13 26.59 19.37C26.47 18.61 26.14 17.9 25.62 17.33C26.28 16.6 26.64 15.65 26.64 14.66C26.64 13.68 26.28 12.73 25.62 12ZM12 21.33L4 21.33C3.64 21.33 3.3 21.19 3.05 20.94C2.8 20.69 2.66 20.35 2.66 20C2.66 19.64 2.8 19.3 3.05 19.05C3.3 18.8 3.64 18.66 4 18.66L12 18.66C12.35 18.66 12.69 18.8 12.94 19.05C13.19 19.3 13.33 19.64 13.33 20C13.33 20.35 13.19 20.69 12.94 20.94C12.69 21.19 12.35 21.33 12 21.33ZM12 16L4 16C3.64 16 3.3 15.85 3.05 15.6C2.8 15.35 2.66 15.02 2.66 14.66C2.66 14.31 2.8 13.97 3.05 13.72C3.3 13.47 3.64 13.33 4 13.33L12 13.33C12.35 13.33 12.69 13.47 12.94 13.72C13.19 13.97 13.33 14.31 13.33 14.66C13.33 15.02 13.19 15.35 12.94 15.6C12.69 15.85 12.35 16 12 16ZM12 10.66L4 10.66C3.64 10.66 3.3 10.52 3.05 10.27C2.8 10.02 2.66 9.68 2.66 9.33C2.66 8.97 2.8 8.64 3.05 8.39C3.3 8.14 3.64 8 4 8L12 8C12.35 8 12.69 8.14 12.94 8.39C13.19 8.64 13.33 8.97 13.33 9.33C13.33 9.68 13.19 10.02 12.94 10.27C12.69 10.52 12.35 10.66 12 10.66ZM12 5.33L4 5.33C3.64 5.33 3.3 5.19 3.05 4.94C2.8 4.69 2.66 4.35 2.66 4C2.66 3.64 2.8 3.3 3.05 3.05C3.3 2.8 3.64 2.66 4 2.66L12 2.66C12.35 2.66 12.69 2.8 12.94 3.05C13.19 3.3 13.33 3.64 13.33 4C13.33 4.35 13.19 4.69 12.94 4.94C12.69 5.19 12.35 5.33 12 5.33ZM23.58 20.94C23.46 21.07 23.32 21.17 23.16 21.23C23 21.3 22.83 21.33 22.66 21.33L15.75 21.33C16.08 20.47 16.08 19.52 15.75 18.66L22.66 18.66C23.02 18.66 23.35 18.8 23.6 19.05C23.85 19.3 24 19.64 24 20C23.99 20.17 23.96 20.35 23.88 20.51C23.81 20.67 23.71 20.82 23.58 20.94ZM23.58 15.61C23.46 15.73 23.32 15.83 23.16 15.9C23 15.96 22.83 16 22.66 16L15.75 16C16.08 15.13 16.08 14.19 15.75 13.33L22.66 13.33C23.02 13.33 23.35 13.47 23.6 13.72C23.85 13.97 24 14.31 24 14.66C23.99 14.84 23.96 15.01 23.88 15.18C23.81 15.34 23.71 15.49 23.58 15.61ZM23.58 10.28C23.46 10.4 23.32 10.5 23.16 10.56C23 10.63 22.83 10.66 22.66 10.66L15.75 10.66C16.08 9.8 16.08 8.86 15.75 8L22.66 8C23.02 8 23.35 8.14 23.6 8.39C23.85 8.64 24 8.97 24 9.33C23.99 9.51 23.96 9.68 23.88 9.84C23.81 10.01 23.71 10.15 23.58 10.28Z" fill="#FFE600" fill-opacity="1.000000" fill-rule="nonzero"/>
</svg>
