<svg width="23.045898" height="23.833374" viewBox="0 0 23.0459 23.8334" fill="none" xmlns="http://www.w3.org/2000/svg" xmlns:xlink="http://www.w3.org/1999/xlink">
	<desc>
			Created with Pixso.
	</desc>
	<defs/>
	<path id="Vector" d="M6.55 15.72C6.34 15.93 6.23 16.2 6.23 16.49C6.23 16.77 6.34 17.05 6.55 17.25C6.65 17.35 6.77 17.43 6.9 17.49C7.03 17.54 7.17 17.57 7.32 17.57C7.46 17.57 7.6 17.54 7.73 17.49C7.86 17.43 7.98 17.35 8.08 17.25C8.29 17.05 8.4 16.77 8.4 16.49C8.4 16.2 8.29 15.93 8.08 15.72C7.98 15.62 7.86 15.54 7.73 15.49C7.6 15.43 7.46 15.4 7.32 15.4C7.17 15.4 7.03 15.43 6.9 15.49C6.77 15.54 6.65 15.62 6.55 15.72ZM6.55 6.53C6.34 6.73 6.23 7 6.23 7.29C6.23 7.58 6.34 7.85 6.55 8.05C6.65 8.16 6.77 8.24 6.9 8.29C7.03 8.35 7.17 8.37 7.32 8.37C7.46 8.37 7.6 8.35 7.73 8.29C7.86 8.24 7.98 8.16 8.08 8.05C8.29 7.85 8.4 7.58 8.4 7.29C8.4 7 8.29 6.73 8.08 6.53C7.98 6.42 7.86 6.34 7.73 6.29C7.6 6.23 7.46 6.21 7.32 6.21C7.17 6.21 7.03 6.23 6.9 6.29C6.77 6.34 6.65 6.42 6.55 6.53ZM11.91 17.36C11.7 17.36 11.49 17.42 11.31 17.54C11.13 17.66 10.99 17.83 10.91 18.03C10.83 18.23 10.8 18.44 10.85 18.65C10.89 18.86 10.99 19.06 11.14 19.21C11.29 19.36 11.49 19.46 11.7 19.51C11.91 19.55 12.13 19.53 12.32 19.44C12.52 19.36 12.69 19.22 12.81 19.04C12.93 18.87 12.99 18.66 12.99 18.44C13 18.3 12.98 18.15 12.93 18.01C12.87 17.87 12.8 17.75 12.7 17.64C12.59 17.54 12.47 17.45 12.34 17.39C12.2 17.34 12.06 17.31 11.91 17.31L11.91 17.36ZM5.41 10.86C5.2 10.86 4.99 10.92 4.81 11.04C4.63 11.16 4.49 11.33 4.41 11.53C4.33 11.73 4.3 11.94 4.35 12.15C4.39 12.36 4.49 12.56 4.64 12.71C4.79 12.86 4.99 12.96 5.2 13.01C5.41 13.05 5.63 13.03 5.82 12.94C6.02 12.86 6.19 12.72 6.31 12.54C6.43 12.37 6.49 12.16 6.49 11.94C6.5 11.8 6.48 11.65 6.43 11.51C6.37 11.37 6.3 11.25 6.2 11.14C6.09 11.04 5.97 10.95 5.84 10.89C5.7 10.84 5.56 10.81 5.41 10.81L5.41 10.86ZM11.91 4.36C11.7 4.36 11.49 4.42 11.31 4.54C11.13 4.66 10.99 4.83 10.91 5.03C10.83 5.23 10.8 5.44 10.85 5.65C10.89 5.86 10.99 6.06 11.14 6.21C11.29 6.36 11.49 6.46 11.7 6.51C11.91 6.55 12.13 6.53 12.32 6.44C12.52 6.36 12.69 6.22 12.81 6.04C12.93 5.87 12.99 5.66 12.99 5.44C13 5.3 12.98 5.15 12.93 5.01C12.87 4.87 12.8 4.75 12.7 4.64C12.59 4.54 12.47 4.45 12.34 4.39C12.2 4.34 12.06 4.31 11.91 4.31L11.91 4.36ZM15.74 6.58C15.59 6.73 15.49 6.92 15.45 7.14C15.4 7.35 15.42 7.56 15.51 7.76C15.59 7.96 15.73 8.13 15.91 8.25C16.08 8.37 16.29 8.43 16.51 8.43C16.72 8.43 16.93 8.37 17.11 8.25C17.29 8.13 17.43 7.96 17.51 7.76C17.59 7.56 17.61 7.35 17.57 7.14C17.53 6.92 17.42 6.73 17.27 6.58C17.08 6.37 16.81 6.25 16.52 6.24C16.23 6.23 15.95 6.33 15.74 6.53L15.74 6.58ZM22.57 6.58C21.58 4.6 20.06 2.94 18.17 1.77C16.29 0.61 14.12 -0.01 11.9 0C9.69 0 7.52 0.61 5.64 1.78C3.76 2.95 2.24 4.61 1.25 6.59C0.26 8.57 -0.16 10.79 0.04 13C0.25 15.2 1.06 17.31 2.39 19.08C3.72 20.84 5.52 22.21 7.58 23.01C9.64 23.82 11.89 24.03 14.07 23.63C14.61 23.53 15.13 23.32 15.6 23.01C16.06 22.7 16.46 22.31 16.77 21.84C17.11 21.34 17.34 20.78 17.45 20.18C17.57 19.59 17.56 18.98 17.43 18.39C17.37 18.03 17.33 17.67 17.33 17.31C17.33 16.26 17.64 15.23 18.22 14.35C18.79 13.48 19.61 12.79 20.58 12.37C21.09 12.13 21.56 11.8 21.94 11.38C22.33 10.96 22.62 10.47 22.81 9.93C23 9.38 23.07 8.8 23.03 8.22C22.99 7.64 22.83 7.08 22.57 6.56L22.57 6.58ZM20.73 9.22C20.64 9.48 20.49 9.72 20.31 9.92C20.12 10.13 19.89 10.29 19.64 10.4C18.31 11 17.18 11.97 16.38 13.19C15.59 14.42 15.16 15.85 15.16 17.31C15.16 17.81 15.21 18.32 15.31 18.82C15.38 19.13 15.38 19.44 15.32 19.75C15.27 20.06 15.15 20.35 14.98 20.61C14.83 20.84 14.64 21.03 14.41 21.18C14.19 21.33 13.93 21.43 13.66 21.48C13.09 21.59 12.5 21.64 11.91 21.64C10.6 21.64 9.31 21.38 8.11 20.87C6.9 20.36 5.82 19.61 4.91 18.68C4 17.74 3.28 16.63 2.81 15.41C2.34 14.19 2.12 12.89 2.16 11.59C2.24 9.15 3.23 6.84 4.93 5.09C6.63 3.34 8.91 2.29 11.35 2.14L11.9 2.14C13.71 2.14 15.49 2.65 17.04 3.6C18.58 4.56 19.82 5.93 20.63 7.56C20.88 8.07 20.91 8.66 20.73 9.2L20.73 9.22ZM11.91 10.81C11.7 10.81 11.49 10.87 11.31 10.99C11.13 11.11 10.99 11.28 10.91 11.47C10.83 11.67 10.8 11.89 10.85 12.1C10.89 12.31 10.99 12.5 11.14 12.65C11.29 12.81 11.49 12.91 11.7 12.95C11.91 12.99 12.13 12.97 12.32 12.89C12.52 12.81 12.69 12.67 12.81 12.49C12.93 12.31 12.99 12.1 12.99 11.89C12.99 11.6 12.88 11.33 12.68 11.12C12.47 10.92 12.2 10.81 11.91 10.81Z" fill="#11BDF3" fill-opacity="1.000000" fill-rule="nonzero"/>
</svg>
