<svg width="26.666992" height="24.000000" viewBox="0 0 26.667 24" fill="none" xmlns="http://www.w3.org/2000/svg" xmlns:xlink="http://www.w3.org/1999/xlink">
	<desc>
			Created with Pixso.
	</desc>
	<defs/>
	<path id="Vector" d="M22.66 0L4 0C2.93 0 1.92 0.42 1.17 1.17C0.42 1.92 0 2.93 0 4L0 14.66C0 15.72 0.42 16.74 1.17 17.49C1.92 18.24 2.93 18.66 4 18.66L12 18.66L12 21.33L6.66 21.33C6.31 21.33 5.97 21.47 5.72 21.72C5.47 21.97 5.33 22.31 5.33 22.66C5.33 23.02 5.47 23.35 5.72 23.6C5.97 23.85 6.31 24 6.66 24L20 24C20.35 24 20.69 23.85 20.94 23.6C21.19 23.35 21.33 23.02 21.33 22.66C21.33 22.31 21.19 21.97 20.94 21.72C20.69 21.47 20.35 21.33 20 21.33L14.66 21.33L14.66 18.66L22.66 18.66C23.72 18.66 24.74 18.24 25.49 17.49C26.24 16.74 26.66 15.72 26.66 14.66L26.66 4C26.66 2.93 26.24 1.92 25.49 1.17C24.74 0.42 23.72 0 22.66 0ZM24 14.66C24 15.02 23.85 15.35 23.6 15.6C23.35 15.85 23.02 16 22.66 16L4 16C3.64 16 3.3 15.85 3.05 15.6C2.8 15.35 2.66 15.02 2.66 14.66L2.66 4C2.66 3.64 2.8 3.3 3.05 3.05C3.3 2.8 3.64 2.66 4 2.66L22.66 2.66C23.02 2.66 23.35 2.8 23.6 3.05C23.85 3.3 24 3.64 24 4L24 14.66Z" fill="#10C8A0" fill-opacity="1.000000" fill-rule="nonzero"/>
</svg>
