<svg width="21.333008" height="26.658325" viewBox="0 0 21.333 26.6583" fill="none" xmlns="http://www.w3.org/2000/svg" xmlns:xlink="http://www.w3.org/1999/xlink">
	<desc>
			Created with Pixso.
	</desc>
	<defs/>
	<path id="Vector" d="M20.83 2.19C20.68 2.07 20.5 1.98 20.31 1.93C20.11 1.89 19.91 1.88 19.71 1.93C18.29 2.22 16.82 2.23 15.39 1.94C13.97 1.65 12.62 1.07 11.42 0.23C11.2 0.08 10.93 0 10.66 0C10.39 0 10.12 0.08 9.9 0.23C8.71 1.07 7.36 1.65 5.93 1.94C4.5 2.23 3.03 2.22 1.61 1.93C1.41 1.88 1.21 1.89 1.02 1.93C0.82 1.98 0.64 2.07 0.49 2.19C0.33 2.32 0.21 2.48 0.12 2.66C0.04 2.84 -0.01 3.03 0 3.23L0 13.17C-0.01 15.08 0.45 16.96 1.32 18.66C2.2 20.36 3.47 21.83 5.02 22.94L9.89 26.41C10.11 26.57 10.38 26.65 10.66 26.65C10.94 26.65 11.21 26.57 11.44 26.41L16.3 22.94C17.86 21.83 19.12 20.36 20 18.66C20.87 16.96 21.33 15.08 21.33 13.17L21.33 3.23C21.33 3.03 21.29 2.84 21.2 2.66C21.11 2.48 20.99 2.32 20.83 2.19ZM18.66 13.17C18.66 14.65 18.31 16.12 17.63 17.44C16.95 18.76 15.96 19.9 14.75 20.77L10.66 23.69L6.57 20.77C5.36 19.9 4.37 18.76 3.69 17.44C3.01 16.12 2.66 14.65 2.66 13.17L2.66 4.77C5.46 5.01 8.26 4.36 10.66 2.91C13.07 4.36 15.87 5.01 18.66 4.77L18.66 13.17Z" fill="#9DA7BB" fill-opacity="1.000000" fill-rule="nonzero"/>
</svg>
